<svg width="29" height="29" viewBox="0 0 29 29" fill="none" xmlns="http://www.w3.org/2000/svg">
<g id="017_megaphone_speaker_talk_advertise_loud_promote">
<path id="Shape" fill-rule="evenodd" clip-rule="evenodd" d="M23.5089 19.0426C23.6531 19.0063 23.7926 18.9561 23.9264 18.8906C26.0807 17.8357 25.9654 13.3274 23.6637 8.62703C21.3621 3.92664 17.8715 1.07109 15.7172 2.12597C15.5834 2.19148 15.4583 2.27096 15.3411 2.36252C15.3357 2.36672 15.3309 2.37174 15.3261 2.37672C15.3215 2.38153 15.3169 2.3863 15.3119 2.39028C14.5545 3.00577 14.1605 4.17213 14.1791 5.74611C14.1794 5.77019 14.1789 5.79362 14.1784 5.81712C14.1778 5.84402 14.1772 5.87101 14.1778 5.89915L14.1779 5.90184L14.1778 5.90599C14.1777 5.90866 14.1776 5.91136 14.1779 5.91428C13.607 8.11853 12.1154 9.95182 10.0781 10.9494L5.88733 13.0015C3.96115 13.9447 3.16157 16.2788 4.1046 18.2046C5.04763 20.1304 7.38164 20.93 9.30783 19.9868L12.2153 25.9243C12.4983 26.5023 13.1981 26.7421 13.7758 26.4592L15.9636 25.3879C16.3505 25.1984 16.6005 24.8131 16.6161 24.3825C16.632 23.9516 16.4103 23.5492 16.0377 23.332L15.2769 22.8892C15.0774 22.7726 14.9179 22.6017 14.8165 22.3945L12.8001 18.2767L13.4986 17.9347C15.5359 16.9371 17.8987 16.8829 19.9903 17.7843C19.9912 17.785 19.992 17.7857 19.9928 17.7863C19.9946 17.7877 19.9964 17.789 19.9982 17.7903L20.004 17.7946C20.0203 17.8081 20.0367 17.8202 20.0532 17.8324L20.0532 17.8324L20.0532 17.8324C20.0675 17.843 20.0818 17.8535 20.0961 17.8651C21.338 18.8608 22.5113 19.2709 23.4687 19.0489C23.475 19.0475 23.4814 19.0468 23.4878 19.046C23.4949 19.0452 23.5021 19.0444 23.5089 19.0426ZM13.4337 25.7606C13.2412 25.8549 13.0078 25.7752 12.9134 25.5824L10.006 19.6449L12.1019 18.6186L12.4439 19.3171L12.0947 19.4882C11.9015 19.5827 11.8217 19.8158 11.9161 20.0086C12.0107 20.2018 12.2436 20.2813 12.4367 20.1867L12.786 20.0157L13.128 20.7142L12.7788 20.8852C12.5856 20.9798 12.5058 21.2129 12.6002 21.4057C12.6948 21.5988 12.9277 21.6783 13.1208 21.5837L13.4701 21.4127L13.8121 22.1112L13.4629 22.2823C13.2697 22.3768 13.1899 22.6099 13.2843 22.8027C13.3789 22.9959 13.6118 23.0754 13.8049 22.9808L14.1594 22.8072C14.3295 23.1201 14.5766 23.3815 14.8856 23.5614L15.6463 24.0043C15.828 24.1102 15.8415 24.2845 15.8389 24.3543C15.8364 24.4243 15.8101 24.597 15.6215 24.6893L13.4337 25.7606ZM6.22949 13.7002C4.68853 14.4547 4.04884 16.322 4.80323 17.8626C5.55762 19.4033 7.42493 20.0429 8.96588 19.2884L9.3148 19.1175L12.1093 17.7492L12.3265 17.6428C11.4483 17.0617 10.7118 16.2225 10.2168 15.2118C9.72187 14.201 9.51077 13.1049 9.5901 12.0546L6.22949 13.7002ZM15.3603 10.9881C15.3917 11.0663 15.4232 11.1439 15.4558 11.2219C15.6171 11.6089 15.7882 11.998 15.9799 12.3895C16.1718 12.7813 16.3741 13.1547 16.581 13.5197C16.6226 13.5933 16.6645 13.6655 16.707 13.7382C17.3423 14.827 18.0351 15.7837 18.7495 16.5775C16.8763 16.1629 14.9104 16.3786 13.1606 17.2345C12.2184 16.7394 11.4242 15.9089 10.9152 14.8695C10.4062 13.8301 10.2372 12.6935 10.424 11.646C12.1726 10.7884 13.5488 9.36758 14.3697 7.63412C14.5589 8.68462 14.8898 9.81855 15.3603 10.9881Z" fill="white"/>
<path id="Path" fill-rule="evenodd" clip-rule="evenodd" d="M16.0593 2.82458C15.4917 3.10249 15.1211 3.81963 14.996 4.84821C14.9803 4.98235 14.9709 5.12419 14.9635 5.26901C14.9616 5.30152 14.9575 5.33122 14.9564 5.36426C14.9495 5.54908 14.9496 5.74214 14.9568 5.94256C14.9571 5.9476 14.9553 5.9528 14.9553 5.95802C14.9875 6.88234 15.1755 7.965 15.5317 9.14506L16.0084 8.91161C17.5494 8.15705 19.4167 8.79675 20.1711 10.3374C20.9255 11.878 20.2858 13.7453 18.7448 14.4998L18.2681 14.7333C18.982 15.7386 19.7218 16.5507 20.4327 17.143C20.4365 17.1464 20.4416 17.1478 20.4454 17.1511C20.5993 17.2797 20.7517 17.3982 20.9021 17.5064C20.9287 17.5254 20.9545 17.5401 20.9808 17.5584C21.0999 17.6416 21.2182 17.7214 21.3343 17.7914C22.2232 18.3235 23.0168 18.4701 23.5844 18.1922C25.1023 17.4489 25.2159 13.5655 22.9652 8.96915C20.7145 4.37284 17.5772 2.0813 16.0593 2.82458Z" fill="#37005B"/>
<path id="Path_2" fill-rule="evenodd" clip-rule="evenodd" d="M15.7838 9.91327C15.8954 10.2323 16.0197 10.5507 16.1508 10.8689C16.1732 10.9233 16.1943 10.9771 16.2172 11.0317C16.3613 11.3721 16.514 11.7113 16.6785 12.0472C16.843 12.3832 17.0173 12.7118 17.1978 13.0344C17.2271 13.0863 17.2565 13.1356 17.2858 13.1866C17.4567 13.4853 17.6322 13.7791 17.8156 14.0625C17.8197 14.0692 17.8238 14.0758 17.8279 14.0825L18.4028 13.8009C19.5585 13.235 20.0385 11.8348 19.4726 10.679C18.9069 9.52368 17.5062 9.04386 16.3505 9.60978L15.7756 9.89129C15.7784 9.89862 15.7811 9.90594 15.7838 9.91327Z" fill="#FF5111"/>
</g>
</svg>
