<svg width="26" height="30" viewBox="0 0 26 30" fill="none" xmlns="http://www.w3.org/2000/svg">
<g id="Group 11">
<path id="Shape" fill-rule="evenodd" clip-rule="evenodd" d="M23.0711 17.4139L17.544 20.626C17.5383 20.6292 17.5324 20.63 17.5264 20.6308C17.5212 20.6315 17.5159 20.6322 17.5109 20.6346C16.9714 21.198 16.3425 21.6851 15.6158 22.0487C14.8282 22.4422 14.3396 23.2339 14.3396 24.1141V24.5336C14.3396 25.8653 15.4226 26.9489 16.7548 26.9489H17.8989C18.7399 26.9489 19.4243 27.6333 19.4243 28.4743C19.4243 29.3153 18.7399 29.9997 17.8989 29.9997H7.62716C6.78613 29.9997 6.10172 29.3153 6.10172 28.4743C6.10172 27.6333 6.78613 26.9489 7.62716 26.9489H8.77123C10.1029 26.9489 11.1865 25.8653 11.1865 24.5336V24.1141C11.1865 23.2339 10.6973 22.4422 9.91022 22.0487C9.22632 21.7065 8.62885 21.2549 8.11021 20.7348L2.35374 17.4139C0.902038 16.5764 0 15.0149 0 13.339C0 12.4776 0.437799 11.693 1.17051 11.24C1.90374 10.7874 2.8012 10.7473 3.57154 11.1317L6.10172 12.3973V10.6776H5.59325C5.31257 10.6776 5.08477 10.4498 5.08477 10.1691C5.08477 9.88844 5.31257 9.66064 5.59325 9.66064H6.6102H18.9159H19.9328C20.2135 9.66064 20.4413 9.88844 20.4413 10.1691C20.4413 10.4498 20.2135 10.6776 19.9328 10.6776H19.4243V12.3459L21.8528 11.1317C22.6232 10.7468 23.5206 10.7869 24.2538 11.24C24.9866 11.693 25.4239 12.4776 25.4239 13.339C25.4239 15.0149 24.5223 16.5764 23.0711 17.4139ZM6.10158 15.8874V13.5347L3.11631 12.0423C2.66326 11.8155 2.13546 11.8394 1.70478 12.1059C1.2741 12.3718 1.01681 12.833 1.01681 13.3394C1.01681 14.6528 1.72359 15.8767 2.86156 16.5337L6.73209 18.7664C6.32632 17.8811 6.10158 16.9059 6.10158 15.8874ZM7.11857 10.6783H18.4073V15.8876C18.4073 18.1259 17.163 20.1385 15.1611 21.1397C14.0267 21.7066 13.3225 22.8466 13.3225 24.1148V24.5343C13.3225 26.4268 14.8617 27.9665 16.7547 27.9665H17.8988C18.179 27.9665 18.4073 28.1948 18.4073 28.4749C18.4073 28.7551 18.179 28.9834 17.8988 28.9834H7.62705C7.34687 28.9834 7.11857 28.7551 7.11857 28.4749C7.11857 28.1948 7.34687 27.9665 7.62705 27.9665H8.77112C10.6642 27.9665 12.2033 26.4268 12.2033 24.5343V24.1148C12.2033 22.8471 11.4991 21.7066 10.3647 21.1397C9.79112 20.8524 9.28824 20.4751 8.84993 20.0403C8.84595 20.0344 8.84085 20.0295 8.83571 20.0246C8.83166 20.0207 8.82758 20.0168 8.824 20.0124C7.75061 18.9334 7.11857 17.471 7.11857 15.8876V10.6783ZM23.719 12.1059C23.2888 11.8394 22.7605 11.8155 22.3075 12.0423L19.4244 13.4838V15.8874C19.4244 16.8815 19.2134 17.8364 18.8264 18.7049L22.5612 16.5342C23.7002 15.8767 24.407 14.6528 24.407 13.3394C24.407 12.833 24.1502 12.3718 23.719 12.1059ZM8.1356 15.2542C8.1356 15.5349 8.3634 15.7627 8.64408 15.7627C8.92527 15.7627 9.15256 15.5349 9.15256 15.2542V11.6948C9.15256 11.4142 8.92527 11.1864 8.64408 11.1864C8.3634 11.1864 8.1356 11.4142 8.1356 11.6948V15.2542Z" fill="white"/>
<path id="Path" fill-rule="evenodd" clip-rule="evenodd" d="M19.3018 1.90374C19.3135 1.94543 19.3221 1.98865 19.3221 2.03391V8.13563C19.3221 8.41631 19.0949 8.64411 18.8137 8.64411C18.533 8.64411 18.3052 8.41631 18.3052 8.13563V3.45815L16.5896 5.55562C16.3181 5.88715 15.9184 6.06613 15.4877 6.04833C15.0591 6.02952 14.6752 5.81545 14.4336 5.46155L12.7119 2.93645L10.9907 5.46155C10.7492 5.81545 10.3648 6.02952 9.93616 6.04833C9.51006 6.06715 9.10684 5.88715 8.8348 5.55562L7.11869 3.45815V8.13563C7.11869 8.41631 6.8914 8.64411 6.61022 8.64411C6.32954 8.64411 6.10174 8.41631 6.10174 8.13563V2.03391C6.10174 1.98865 6.11089 1.94543 6.12208 1.90374C5.80886 1.73035 5.59326 1.39984 5.59326 1.01695C5.59326 0.456104 6.04937 0 6.61022 0C7.17107 0 7.62717 0.456104 7.62717 1.01695C7.62717 1.38255 7.43191 1.70086 7.14157 1.88035L9.62193 4.91138C9.71345 5.02324 9.83142 5.03646 9.89193 5.0324C9.95396 5.02985 10.0694 5.00748 10.1502 4.8885L12.1958 1.88848C11.8979 1.71102 11.695 1.38865 11.695 1.01695C11.695 0.456104 12.1511 0 12.7119 0C13.2728 0 13.7289 0.456104 13.7289 1.01695C13.7289 1.38865 13.5265 1.71102 13.2286 1.88848L15.2736 4.8885C15.355 5.00748 15.4704 5.02985 15.5325 5.0324C15.5935 5.03646 15.7109 5.02324 15.8025 4.91138L18.2828 1.88035C17.9925 1.70086 17.7967 1.38255 17.7967 1.01695C17.7967 0.456104 18.2528 0 18.8137 0C19.3745 0 19.8306 0.456104 19.8306 1.01695C19.8306 1.39984 19.6155 1.73035 19.3018 1.90374Z" fill="#FF5111"/>
</g>
</svg>
