<svg width="24" height="24" viewBox="0 0 24 24" fill="none" xmlns="http://www.w3.org/2000/svg">
<g id="020_gauge_dash_dashboard_speed_widget_performance_2">
<path id="Shape" fill-rule="evenodd" clip-rule="evenodd" d="M12.0002 23.9996C5.38319 23.9996 0 18.6168 0 11.9998C0 5.38319 5.38319 0 12.0002 0C18.6168 0 24 5.38319 24 11.9998C24 18.6168 18.6168 23.9996 12.0002 23.9996ZM12.0003 0.856981C5.85594 0.856981 0.85717 5.85575 0.85717 11.9996C0.85717 18.144 5.85594 23.1423 12.0003 23.1423C18.1441 23.1423 23.1429 18.144 23.1429 11.9996C23.1429 5.85575 18.1441 0.856981 12.0003 0.856981ZM20.1429 12.4284H21.8572C22.0937 12.4284 22.2857 12.2365 22.2857 11.9999C22.2857 11.7633 22.0937 11.5713 21.8572 11.5713H20.1429C19.9063 11.5713 19.7143 11.7633 19.7143 11.9999C19.7143 12.2365 19.9063 12.4284 20.1429 12.4284ZM16.4428 5.16246C16.3631 5.30003 16.2191 5.37674 16.0712 5.37674C15.9983 5.37674 15.9246 5.35831 15.8573 5.31932C15.6521 5.20103 15.5818 4.93875 15.7001 4.7339L16.5572 3.24935C16.6759 3.04407 16.9378 2.97379 17.143 3.0925C17.3479 3.21078 17.4182 3.47306 17.2999 3.67792L16.4428 5.16246ZM11.1426 11.9998C11.1426 11.5271 11.5275 11.1426 12.0002 11.1426C12.4729 11.1426 12.8573 11.5271 12.8573 11.9998C12.8573 12.4725 12.4729 12.8569 12.0002 12.8569C11.5275 12.8569 11.1426 12.4725 11.1426 11.9998ZM12.0001 4.28572C11.7631 4.28572 11.5711 4.09373 11.5711 3.85716V2.1429C11.5711 1.90634 11.7631 1.71434 12.0001 1.71434C12.2367 1.71434 12.4287 1.90634 12.4287 2.1429V3.85716C12.4287 4.09373 12.2367 4.28572 12.0001 4.28572ZM7.92896 5.37674C8.00181 5.37674 8.07553 5.35831 8.14281 5.31932C8.34809 5.20103 8.41838 4.93875 8.30009 4.7339L7.44297 3.24935C7.32426 3.04407 7.06197 2.97379 6.85712 3.0925C6.65227 3.21078 6.58198 3.47306 6.70027 3.67792L7.55739 5.16246C7.63711 5.30003 7.7811 5.37674 7.92896 5.37674ZM5.16259 16.4422L3.67804 17.2993C3.61076 17.3383 3.53705 17.3567 3.46419 17.3567C3.31591 17.3567 3.17191 17.28 3.0922 17.1424C2.97434 16.9376 3.0442 16.6753 3.24948 16.557L4.73403 15.6999C4.93845 15.5812 5.20116 15.6519 5.31944 15.8567C5.43773 16.0616 5.36744 16.3239 5.16259 16.4422ZM4.73403 8.29967C4.80131 8.33867 4.87502 8.35709 4.94788 8.35709C5.09616 8.35709 5.23973 8.28038 5.31944 8.14281C5.43773 7.93796 5.36744 7.67568 5.16259 7.55739L3.67804 6.70027C3.47276 6.58156 3.21091 6.65227 3.0922 6.85712C2.97434 7.06198 3.0442 7.32426 3.24948 7.44254L4.73403 8.29967ZM4.28572 11.9999C4.28572 12.2365 4.09415 12.4284 3.85716 12.4284H2.14333C1.90634 12.4284 1.71434 12.2365 1.71434 11.9999C1.71434 11.7633 1.90634 11.5713 2.14333 11.5713H3.85716C4.09415 11.5713 4.28572 11.7633 4.28572 11.9999ZM20.7508 16.557L19.2662 15.6999C19.0609 15.5812 18.7991 15.6519 18.6808 15.8567C18.5625 16.0616 18.6328 16.3239 18.8377 16.4422L20.3222 17.2993C20.3895 17.3383 20.4636 17.3567 20.5361 17.3567C20.6843 17.3567 20.8283 17.28 20.908 17.1424C21.0259 16.9376 20.956 16.6753 20.7508 16.557Z" fill="white"/>
<path id="Combined Shape" fill-rule="evenodd" clip-rule="evenodd" d="M16.2858 19.2851V17.5708C16.2858 16.862 15.709 16.2852 15.0001 16.2852H9.00023C8.29096 16.2852 7.71411 16.862 7.71411 17.5708V19.2851C7.71411 19.9939 8.29096 20.5708 9.00023 20.5708H15.0001C15.709 20.5708 16.2858 19.9939 16.2858 19.2851ZM8.5717 19.2855V17.5712C8.5717 17.3351 8.76369 17.1426 9.00026 17.1426H15.0002C15.2363 17.1426 15.4287 17.3351 15.4287 17.5712V19.2855C15.4287 19.522 15.2363 19.714 15.0002 19.714H9.00026C8.76369 19.714 8.5717 19.522 8.5717 19.2855Z" fill="white"/>
<path id="Path" fill-rule="evenodd" clip-rule="evenodd" d="M20.7508 7.44248L19.2663 8.29961C19.199 8.3386 19.1253 8.35703 19.0524 8.35703C18.9046 8.35703 18.7606 8.28032 18.6808 8.14275C18.5626 7.9379 18.6329 7.67562 18.8377 7.55733L20.3222 6.70021C20.5271 6.58149 20.7894 6.65221 20.9081 6.85706C21.026 7.06191 20.9561 7.32419 20.7508 7.44248Z" fill="#FF5111"/>
<path id="Path_2" fill-rule="evenodd" clip-rule="evenodd" d="M16.6578 7.34198C16.8254 7.50955 16.8254 7.78083 16.6578 7.94797L13.4715 11.1343C13.6219 11.3893 13.7145 11.6829 13.7145 11.9996C13.7145 12.945 12.9452 13.7139 12.0002 13.7139C11.0548 13.7139 10.2855 12.945 10.2855 11.9996C10.2855 11.0546 11.0548 10.2854 12.0002 10.2854C12.3169 10.2854 12.6105 10.3779 12.8655 10.5284L16.0518 7.34198C16.219 7.17442 16.4903 7.17442 16.6578 7.34198Z" fill="#FF5111"/>
</g>
</svg>
